#!OML:ASF E:/inclinewalkrobotboard/Project1/Captureday1/Session1/subject1.ASF
:FULLY-SPECIFIED
:DEGREES
26
root 0 0 0 10.622932144511491 50.83380454926058 1.3628020883860508
lowerback -8.077081230130947 -5.199995731310915 -4.521112838925988
upperback -11.00291696696678 -6.352370253503765 9.294807298152692
thorax -6.126166116445346 -2.3289740608370355 12.433108983791982
lowerneck -2.172370840945838 -10.38421509398804 -8.7135554315805
upperneck 33.18297826690852 -12.72086550694634 -0.9331386715089591
head 11.909451218080106 -6.702694166114295 -0.5506509280583594
rclavicle 2.7573574321957075E-15 -1.8934418417847733E-15
rhumerus -12.317804084778357 -44.52183023021729 34.22341299595586
rradius 17.890542438202463
rwrist 70.38461888791375
rhand 7.480730086779439 1.720844591616741
rfingers 7.125020000000057
rthumb 32.58867795725084 -24.83271401967989
lclavicle 7.455114507992838E-15 2.9147355353449205E-15
lhumerus 56.21967623872409 33.5814563767519 11.15801656864221
lradius 24.497266403331377
lwrist -37.629782043898274
lhand -16.533297940088733 19.056233765052095
lfingers 7.125019999999925
lthumb 9.697899003508619 49.277709300506615
rfemur -51.39541582337381 -5.157051001718571 14.549431391852067
rtibia 31.58888912829547
rfoot -91.1905825599875 2.2473177520042853
rtoes 50.43558326689828
lfemur -50.78861184723735 9.233180506128967 -54.99327840389175
ltibia 67.336388217196
lfoot 17.88238386162943 17.29748796697749
ltoes -18.070539564019235
27
root 0 0 0 10.131167078498567 49.813734590588965 1.7024692455519048
lowerback -7.935424221744682 -5.2428729279344015 -4.6267037693203115
upperback -10.910646585204907 -6.408923245073004 9.208896878408988
thorax -6.126679530143104 -2.3417512183027727 12.399597671248149
lowerneck -2.286333653374479 -10.335654738289813 -8.680603429572082
upperneck 33.152155265300614 -12.680087490494262 -0.8372389470072621
head 11.916462838261848 -6.674725004980322 -0.5193831878370192
rclavicle 3.655931682199163E-15 -1.57839586446067E-15
rhumerus -16.914139959254634 -45.696564424149 38.00309429755628
rradius 19.077593742104742
rwrist 70.4194874410862
rhand 6.256226301107913 3.1769040618485587
rfingers 7.1250200000000525
rthumb 31.417679998232757 -23.52680201227659
lclavicle 8.180712329484442E-15 2.871993548079827E-15
lhumerus 57.36236535602366 33.15130658874895 11.455397370867466
lradius 25.297871042813874
lwrist -36.88180419793463
lhand -16.586584241705275 18.44367024254457
lfingers 7.125019999999927
lthumb 9.639584680395743 48.619759778068264
rfemur -50.5958763824851 -6.681378566434944 13.99941766491932
rtibia 31.714421446261532
rfoot -92.70806797251966 3.0374260486358615
rtoes 49.29028550144132
lfemur -55.362148091777044 11.616833587565203 -57.59056234712767
ltibia 67.31646360652763
lfoot 21.80652794861899 19.72396200603901
ltoes -17.847191381003924
28
root 0 0 0 9.311676085036844 48.12493961109422 2.2604136108942985
lowerback -7.699871403813685 -5.306217717347204 -4.792481362275177
upperback -10.753314253119786 -6.491727532739103 9.067991379752069
thorax -6.124594052162741 -2.35782159053825 12.340496112214225
lowerneck -2.4705196034562924 -10.253443180925766 -8.620999731645234
upperneck 33.096013341150766 -12.609579677184195 -0.680922154934164
head 11.924559118193299 -6.627107976656337 -0.46895542777130883
rclavicle 4.094783537882918E-15 -1.2889917174110685E-15
rhumerus -21.836411791327606 -47.036630556118894 42.17825752443482
rradius 20.481514078267892
rwrist 70.46996646896876
rhand 4.657569567568304 4.936216829755797
rfingers 7.125020000000047
rthumb 29.892011788999362 -21.974267292906873
lclavicle 8.607623134163704E-15 2.7173134008931966E-15
lhumerus 57.87392816478311 32.50115401329269 11.61699404674826
lradius 26.336615371065314
lwrist -36.115301488136936
lhand -16.688322652433605 17.838938785381824
lfingers 7.125019999999931
lthumb 9.53346205081746 47.96822352268409
rfemur -49.77922413568473 -8.046603193757065 13.468651116134978
rtibia 31.818904840088233
rfoot -93.90478589336294 3.6278610811977927
rtoes 48.23315704907907
lfemur -58.12079892249284 12.86141780678905 -59.05020279894296
ltibia 67.00778448781367
lfoot 24.352786750421746 21.27234228546352
ltoes -17.343102615078635
29
root 0 0 0 8.08706127776863 45.60549730638263 3.083986923846041
lowerback -7.350232175271188 -5.395653660587506 -5.028141550314638
upperback -10.517869235461056 -6.607695242553369 8.859065460360787
thorax -6.120151017081808 -2.378759357858918 12.246867988740831
lowerneck -2.743963504519459 -10.13122941399832 -8.530455026181132
upperneck 33.01313002633187 -12.504932902704434 -0.4494882617561009
head 11.936475906704986 -6.556378168251621 -0.39456655665789664
rclavicle 3.992477085059643E-15 -1.338140971388078E-15
rhumerus -24.40457771209524 -48.45682744416211 45.30783931510589
rradius 22.211755583297723
rwrist 70.34088173774227
rhand 2.381116897938571 6.988282597428027
rfingers 7.125020000000041
rthumb 27.725644330752136 -20.24695119364625
lclavicle 8.601255917463194E-15 2.341122878712725E-15
lhumerus 58.10645496249376 31.48512899638386 11.804496764935116
lradius 27.78221106440397
lwrist -35.02174903445242
lhand -16.907963744982855 17.1302993181525
lfingers 7.125019999999935
lthumb 9.311663188078285 47.20373301333592
rfemur -49.05288564932394 -9.100586816010761 13.007978965024535
rtibia 31.93077326453536
rfoot -94.6809243215382 3.847678895803682
rtoes 47.40917351924832
lfemur -59.81592229455859 13.527626110792966 -59.8174546777784
ltibia 66.6263388093412
lfoot 26.052740569390867 22.235502570888332
ltoes -16.81645985426057
30
root 0 0 0 6.334480034912254 41.993397123456376 4.252038467507456
lowerback -6.852486295237999 -5.520305869778518 -5.352095211941248
upperback -10.182412744490986 -6.768380265094443 8.561119120043296
thorax -6.113918590666556 -2.407043535781579 12.106017155042554
lowerneck -3.1361459598460035 -9.957820820506216 -8.400722631825689
upperneck 32.89952389057287 -12.357520460326135 -0.12007841142957609
head 11.955582130224446 -6.456289281277366 -0.2888283012760613
rclavicle 2.9257926427917828E-15 -2.065333134654624E-15
rhumerus -22.83063686779463 -50.027634450355706 45.74388146239084
rradius 24.33608760374538
rwrist 69.62077659788658
rhand -1.0381986908979608 9.495251859060252
rfingers 7.125020000000034
rthumb 24.47881230069947 -18.26614055718142
lclavicle 7.841996537596199E-15 1.6031850331908905E-15
lhumerus 58.25318530360694 30.08011912839485 12.193272286503017
lradius 29.798565240618395
lwrist -33.361373205341316
lhand -17.213988696442495 16.228488402470518
lfingers 7.125019999999942
lthumb 9.004519371696647 46.226298579636165
rfemur -48.2376659274007 -10.037941461681456 12.463225852413487
rtibia 32.05437079529793
rfoot -95.0475996782676 3.6363334164099896
rtoes 46.79577100423327
lfemur -61.07803043953734 13.980093665697677 -60.24563548320011
ltibia 66.24555194285739
lfoot 27.287234638462817 22.93603939268621
ltoes -16.295014241370126
31
root 0 0 0 2.632168087321517 34.34795332369676 6.705503311538015
lowerback -5.799998627662261 -5.77799080685293 -6.017710311912435
upperback -9.47446772609083 -7.099432812485011 7.93261981102488
thorax -6.102504383944217 -2.4637848293588727 11.798227015903436
lowerneck -3.9650271933960157 -9.592589934814676 -8.124632107263634
upperneck 32.66459232205929 -12.04791029380483 0.5721396125319034
head 11.997683188093252 -6.245763326372291 -0.06695631604616059
rclavicle -1.6278919760366216E-15 -4.64624201155751E-15
rhumerus -13.216090597258072 -51.993450448376 38.59027743497803
rradius 28.480227551407012
rwrist 66.06232370369959
rhand -8.85391594861442 14.544914499274562
rfingers 7.125020000000023
rthumb 17.062559500169854 -14.445691869011334
lclavicle 4.6523898344520184E-15 -4.1793235009981067E-16
lhumerus 58.252677541398654 27.426094527080156 13.438477215961896
lradius 34.28035814698759
lwrist -29.608984934438343
lhand -17.557801344347357 14.44622992163458
lfingers 7.125019999999958
lthumb 8.652813533079863 44.269720654597585
rfemur -45.74417786273021 -12.335519623240842 10.599092966450272
rtibia 32.28136011933601
rfoot -94.89874491158211 2.6632145601284876
rtoes 46.000180685987516
lfemur -63.07276459522222 14.660932369009526 -60.656830144237006
ltibia 65.6508920401118
lfoot 28.493250334170884 24.021711429077534
ltoes -15.286189714760924
32
root 0 0 0 0.14117816069645173 29.200773433623123 8.352216252326341
lowerback -5.084290334557013 -5.950493429441645 -6.463569114865527
upperback -8.99678433871863 -7.321174900891219 7.50835416563903
thorax -6.097561217714314 -2.5016664047237525 11.588346229653613
lowerneck -4.526370038688299 -9.345804819333177 -7.938436387386451
upperneck 32.501034015225216 -11.838001196487793 1.0374106133699392
head 12.024545565811394 -6.1033527669515495 0.08229018766582752
rclavicle -4.78622082125598E-15 -5.614065916347605E-15
rhumerus -8.029559923499216 -48.99805362285021 28.645237835817234
rradius 32.69473256074519
rwrist 59.96972749285397
rhand -14.480953384504112 18.53559221851824
rfingers 7.125020000000015
rthumb 11.707338162348666 -11.221030537912062
lclavicle 1.7472978407040694E-15 -2.2535628097084257E-15
lhumerus 57.636262628349826 25.242673266829897 14.394419921977008
lradius 39.118196009869145
lwrist -26.63405763830613
lhand -17.109923127043505 12.785592946957113
lfingers 7.1250199999999735
lthumb 9.067221417863912 42.400179524446216
rfemur -41.721441034932226 -15.977391341607245 7.3270980900774845
rtibia 32.45784914329165
rfoot -94.31573535989783 1.3617927711956277
rtoes 45.38642970293769
lfemur -65.18808252053337 15.448835059838384 -60.84115123164089
ltibia 65.44007154895355
lfoot 28.49490037229344 25.107425725900793
ltoes -14.012657224267551
